<svg width="800" height="600" xmlns="http://www.w3.org/2000/svg">
  <!-- Background -->
  <rect width="100%" height="100%" fill="#000000" />
  
  <!-- Mobile App UI Elements -->
  <g transform="translate(200, 100)">
    <!-- Phone outline -->
    <rect x="0" y="0" width="200" height="400" rx="20" ry="20" fill="#111111" stroke="#333333" stroke-width="3" />
    <rect x="10" y="10" width="180" height="380" rx="10" ry="10" fill="#222222" />
    
    <!-- App UI -->
    <rect x="10" y="10" width="180" height="60" fill="#E50914" />
    <text x="100" y="45" font-family="Arial" font-size="16" fill="#FFFFFF" text-anchor="middle">HealthTrack</text>
    
    <!-- App content -->
    <g>
      <!-- Navigation tabs -->
      <rect x="20" y="80" width="160" height="40" rx="5" ry="5" fill="#333333" />
      <rect x="30" y="90" width="40" height="20" rx="10" ry="10" fill="#E50914" />
      <rect x="80" y="90" width="40" height="20" rx="10" ry="10" fill="#333333" />
      <rect x="130" y="90" width="40" height="20" rx="10" ry="10" fill="#333333" />
      
      <!-- Content cards -->
      <rect x="20" y="130" width="160" height="80" rx="10" ry="10" fill="#333333" />
      <circle cx="50" cy="150" r="20" fill="#FFC107" opacity="0.8" />
      <rect x="80" y="140" width="90" height="10" fill="#FFFFFF" opacity="0.8" />
      <rect x="80" y="160" width="70" height="10" fill="#FFFFFF" opacity="0.4" />
      <rect x="30" y="180" width="140" height="20" rx="5" ry="5" fill="#FFC107" opacity="0.2" />
      
      <rect x="20" y="220" width="160" height="80" rx="10" ry="10" fill="#333333" />
      <circle cx="50" cy="240" r="20" fill="#E50914" opacity="0.8" />
      <rect x="80" y="230" width="90" height="10" fill="#FFFFFF" opacity="0.8" />
      <rect x="80" y="250" width="70" height="10" fill="#FFFFFF" opacity="0.4" />
      <rect x="30" y="270" width="140" height="20" rx="5" ry="5" fill="#E50914" opacity="0.2" />
      
      <rect x="20" y="310" width="160" height="70" rx="10" ry="10" fill="#E50914" opacity="0.8" />
      <text x="100" y="350" font-family="Arial" font-size="14" fill="#FFFFFF" text-anchor="middle">GET STARTED</text>
    </g>
  </g>
  
  <!-- Design elements -->
  <g transform="translate(450, 140)">
    <!-- User flow diagram -->
    <g opacity="0.7">
      <rect x="0" y="0" width="80" height="40" rx="5" ry="5" fill="#FFC107" opacity="0.8" />
      <text x="40" y="25" font-family="Arial" font-size="12" fill="#000000" text-anchor="middle">Onboarding</text>
      
      <rect x="0" y="120" width="80" height="40" rx="5" ry="5" fill="#FFC107" opacity="0.8" />
      <text x="40" y="145" font-family="Arial" font-size="12" fill="#000000" text-anchor="middle">Dashboard</text>
      
      <rect x="0" y="240" width="80" height="40" rx="5" ry="5" fill="#FFC107" opacity="0.8" />
      <text x="40" y="265" font-family="Arial" font-size="12" fill="#000000" text-anchor="middle">Settings</text>
      
      <line x1="40" y1="40" x2="40" y2="120" stroke="#FFFFFF" stroke-width="2" stroke-dasharray="5,5" />
      <line x1="40" y1="160" x2="40" y2="240" stroke="#FFFFFF" stroke-width="2" stroke-dasharray="5,5" />
      
      <!-- User research notes -->
      <rect x="140" y="40" width="120" height="60" rx="5" ry="5" fill="#222222" stroke="#E50914" stroke-width="1" />
      <text x="200" y="70" font-family="Arial" font-size="10" fill="#FFFFFF" text-anchor="middle">Large touch targets</text>
      <text x="200" y="85" font-family="Arial" font-size="10" fill="#FFFFFF" text-anchor="middle">for seniors</text>
      
      <rect x="140" y="160" width="120" height="60" rx="5" ry="5" fill="#222222" stroke="#E50914" stroke-width="1" />
      <text x="200" y="190" font-family="Arial" font-size="10" fill="#FFFFFF" text-anchor="middle">Simplified navigation</text>
      <text x="200" y="205" font-family="Arial" font-size="10" fill="#FFFFFF" text-anchor="middle">& clear labels</text>
      
      <line x1="80" y1="20" x2="140" y2="70" stroke="#FFFFFF" stroke-width="1" stroke-dasharray="2,2" />
      <line x1="80" y1="140" x2="140" y2="190" stroke="#FFFFFF" stroke-width="1" stroke-dasharray="2,2" />
    </g>
  </g>
  
  <!-- Decorative elements -->
  <circle cx="150" cy="150" r="50" fill="#E50914" opacity="0.1" />
  <circle cx="650" cy="450" r="70" fill="#FFC107" opacity="0.1" />
  <rect x="100" y="400" width="100" height="100" rx="10" ry="10" fill="#E50914" opacity="0.05" />
  <rect x="600" y="100" width="120" height="80" rx="10" ry="10" fill="#FFC107" opacity="0.05" />
  
  <!-- Project title -->
  <rect x="250" y="520" width="300" height="60" rx="5" ry="5" fill="#111111" />
  <text x="400" y="560" font-family="Arial" font-size="24" fill="#FFFFFF" text-anchor="middle">Mobile App Design</text>
</svg> 