<svg width="800" height="600" xmlns="http://www.w3.org/2000/svg">
  <!-- Background -->
  <rect width="100%" height="100%" fill="#000000" />
  
  <!-- Brand elements -->
  <g>
    <!-- Stylized logo placeholder -->
    <rect x="250" y="150" width="300" height="300" fill="#111111" stroke="#333333" stroke-width="3" />
    <circle cx="400" cy="300" r="100" fill="#222222" stroke="#444444" stroke-width="2" />
    <path d="M350,300 L450,300 M400,250 L400,350" stroke="#E50914" stroke-width="8" stroke-linecap="round" />
    
    <!-- Design elements -->
    <rect x="300" y="200" width="30" height="30" fill="#FFC107" />
    <rect x="470" y="200" width="30" height="30" fill="#FFC107" />
    <rect x="300" y="370" width="30" height="30" fill="#FFC107" />
    <rect x="470" y="370" width="30" height="30" fill="#FFC107" />
  </g>
  
  <!-- Brand identity graphical elements -->
  <g opacity="0.7">
    <path d="M180,100 L180,500 L220,500 L220,100 Z" fill="#E50914" opacity="0.5" />
    <path d="M580,100 L580,500 L620,500 L620,100 Z" fill="#E50914" opacity="0.5" />
    <path d="M100,240 L700,240 L700,260 L100,260 Z" fill="#FFC107" opacity="0.5" />
    <path d="M100,340 L700,340 L700,360 L100,360 Z" fill="#FFC107" opacity="0.5" />
  </g>
  
  <!-- Abstract design elements -->
  <circle cx="150" cy="150" r="50" fill="#E50914" opacity="0.1" />
  <circle cx="650" cy="450" r="70" fill="#FFC107" opacity="0.1" />
  <rect x="100" y="400" width="100" height="100" rx="10" ry="10" fill="#E50914" opacity="0.05" />
  <rect x="600" y="100" width="120" height="80" rx="10" ry="10" fill="#FFC107" opacity="0.05" />
  
  <!-- Dynamic diagonal lines -->
  <line x1="0" y1="0" x2="200" y2="200" stroke="#333333" stroke-width="1" />
  <line x1="600" y1="0" x2="800" y2="200" stroke="#333333" stroke-width="1" />
  <line x1="0" y1="400" x2="200" y2="600" stroke="#333333" stroke-width="1" />
  <line x1="600" y1="400" x2="800" y2="600" stroke="#333333" stroke-width="1" />
  
  <!-- Project title -->
  <rect x="250" y="480" width="300" height="60" rx="5" ry="5" fill="#111111" />
  <text x="400" y="520" font-family="Arial" font-size="24" fill="#FFFFFF" text-anchor="middle">Digital Brand Transformation</text>
</svg> 