<svg width="400" height="400" xmlns="http://www.w3.org/2000/svg">
  <!-- Background -->
  <rect width="100%" height="100%" fill="#000000" />
  
  <!-- Profile frame -->
  <rect x="50" y="50" width="300" height="300" rx="150" ry="150" fill="#111111" stroke="#333333" stroke-width="2" />
  
  <!-- Abstract head shape -->
  <circle cx="200" cy="160" r="70" fill="#222222" />
  
  <!-- Abstract body shape -->
  <path d="M140,220 C140,280 260,280 260,220 L260,310 C260,330 140,330 140,310 Z" fill="#222222" />
  
  <!-- Hair highlights -->
  <path d="M140,160 C140,100 180,80 200,80 C220,80 260,100 260,160 C260,180 220,200 200,190 C180,200 140,180 140,160 Z" fill="#333333" />
  <path d="M200,80 C180,90 160,120 170,140 C180,140 190,130 200,120 C210,130 220,140 230,140 C240,120 220,90 200,80 Z" fill="#E50914" opacity="0.5" />
  
  <!-- Facial features suggestion -->
  <ellipse cx="175" cy="150" rx="8" ry="10" fill="#000000" />
  <ellipse cx="225" cy="150" rx="8" ry="10" fill="#000000" />
  <path d="M185,180 C185,190 215,190 215,180" stroke="#000000" stroke-width="2" fill="none" />
  
  <!-- Decorative elements -->
  <circle cx="80" cy="320" r="25" fill="#E50914" opacity="0.3" />
  <circle cx="320" cy="80" r="30" fill="#FFC107" opacity="0.3" />
  
  <!-- Earrings -->
  <circle cx="145" cy="170" r="5" fill="#FFC107" />
  <circle cx="255" cy="170" r="5" fill="#FFC107" />
  
  <!-- Name label -->
  <rect x="120" y="340" width="160" height="30" rx="15" ry="15" fill="#222222" />
  <text x="200" y="360" font-family="Arial" font-size="14" fill="#FFFFFF" text-anchor="middle">Emma Rodriguez</text>
</svg> 